<?xml version="1.0" encoding="utf-8"?>
<!-- Generator: Adobe Illustrator 21.0.2, SVG Export Plug-In . SVG Version: 6.00 Build 0)  -->
<svg version="1.1" id="Capa_1" xmlns="http://www.w3.org/2000/svg" xmlns:xlink="http://www.w3.org/1999/xlink" x="0px" y="0px"
	 viewBox="0 0 512 512" style="enable-background:new 0 0 512 512;" xml:space="preserve">
<style type="text/css">
	.st0{fill:#FC00A8;}
	.st1{fill:#F58A97;}
	.st2{fill:#F07281;}
	.st3{fill:#EB5569;}
</style>
<g>
	<g>
		<g id="XMLID_107_">
			<g>
				<path class="st0" d="M452.4,239.1c1.4,17.6-11,33.3-27.7,35c-12.8,1.3-24.3-6-29.6-17.4l-15.1,1.3l-11.4,5.5
					c-2.6,1.3-4.4,3.8-4.8,6.6c-1.1,7.7-3,15.2-5.8,22.2c-0.9,2.4-0.8,5.1,0.5,7.3l4.1,7.3l11.3,7.6c6-2.3,12.9-1.7,18.6,2.1
					c9.7,6.5,12,19.9,4.8,29.3c-6.2,8.1-17.7,10.3-26.5,5.1c-5.6-3.3-9-8.8-9.8-14.7l-12.5-8.4l-7.9-1c-2.7-0.3-5.4,0.6-7.4,2.5
					c-6.7,6.3-14.2,11.8-22.3,16.1c-2.8,1.5-4.5,4.3-4.7,7.4l-1,16l5,19.7c8.4,2.4,15.4,9.1,17.7,18.2c3.5,13.8-5.1,27.7-19,30.8
					c-12.6,2.8-25.5-4.5-29.5-16.8c-3.1-9.6-0.3-19.5,6.3-25.9l-5-19.8l-7.7-12.4c-2.1-3.3-5.7-5.3-9.6-5.3c0,0,0,0-0.1,0
					c-6.7,0-13.3-0.7-19.7-1.9c-3.8-0.8-7.7,0.4-10.4,3.3L223,369.6l-11.4,23.6c2.7,5.4,2.9,12,0.1,17.8c-5.1,10.5-18,14.7-28.3,8.9
					c-8.8-5-12.7-16-8.8-25.4c2.6-6.4,8.1-10.7,14.2-12.1l11.5-23.8l2.2-16c0.4-2.9-0.7-5.9-3-7.8c-9.1-7.4-16.9-16.3-23-26.4
					c-1.5-2.5-4.2-4-7.2-4l-15.9-0.2l-17.4,5.5c-1.2,10.8-8.7,20.5-19.7,24c-14.9,4.7-30.7-3.5-35.6-18.3
					c-4.8-14.8,3.3-31,18.1-35.8c10.3-3.4,21.2-0.6,28.5,6.4l18.5-5.8l13.5-9.6c2-1.4,3.1-3.8,2.9-6.3c-0.2-2.7-0.3-5.5-0.3-8.2
					c0-15.1,3.3-29.4,9.2-42.2c0.9-1.9,0.8-4.1-0.1-5.9l-4-8.2l-10.9-8.2c-6.1,1.9-13,1-18.5-3.1c-9.3-7-10.9-20.5-3.2-29.5
					c6.6-7.7,18.3-9.3,26.7-3.6c5.4,3.6,8.5,9.3,9,15.2l12,9.1l12.1,2.2c8.8-8.2,19.1-14.9,30.5-19.5l2.9-17.3L224,127
					c-10.6-2.7-19.3-10.9-21.6-21.8c-3.3-15.4,7.3-30.3,23.6-33.4c16.3-3.1,32.2,6.9,35.5,22.2c2.5,11.5-2.8,22.8-12.5,29l3.4,16.9
					l8.3,13.3c0.5,0.9,1.5,1.4,2.5,1.4h0c19.1,0,37,5.3,52.3,14.5c0.8,0.5,1.9,0.6,2.8,0.2l13.1-6.1l15.3-16.5
					c-0.9-5.9,0.8-12.2,5.2-16.9c7.9-8.6,21.5-8.8,29.7-0.2c7.2,7.5,7.4,19.5,0.6,27.3c-4.4,5.1-10.7,7.4-16.9,7l-15.3,16.5l-5,13.3
					c-0.3,0.9-0.2,2,0.4,2.8c6,8.3,10.8,17.5,14.1,27.3c0.9,2.7,3.1,4.8,5.8,5.6l12.4,3.5l16.1-1.4c4-11.4,13.8-20,25.9-21.2
					C436.4,208.5,451,221.5,452.4,239.1L452.4,239.1z"/>
			</g>
		</g>
		<g id="XMLID_8_">
			<g>
				<circle class="st1" cx="263.3" cy="256" r="75.1"/>
			</g>
		</g>
		<path class="st2" d="M211.1,256c0-37.6,27.6-68.7,63.7-74.3c-3.7-0.6-7.6-0.9-11.5-0.9c-41.5,0-75.1,33.6-75.1,75.1
			s33.6,75.1,75.1,75.1c3.9,0,7.7-0.3,11.4-0.9C238.7,324.8,211.1,293.6,211.1,256L211.1,256z"/>
		<g>
			<circle class="st3" cx="136.9" cy="98.1" r="21.4"/>
			<circle class="st3" cx="131" cy="380.1" r="14.1"/>
			<circle class="st3" cx="390.5" cy="403.3" r="20.8"/>
			<circle class="st3" cx="240.2" cy="235.3" r="19.4"/>
			<circle class="st3" cx="255.8" cy="295.6" r="13.2"/>
			<circle class="st3" cx="297.3" cy="256" r="11.1"/>
		</g>
	</g>
	<g>
		<path d="M458.2,238.7c-0.8-10.4-5.5-19.8-13.3-26.2c-7.3-6.1-16.4-8.9-25.7-8c-12.7,1.3-23.9,9.6-29.4,21.5l-11.5,1l-11.4-3.2
			c-0.9-0.2-1.6-0.9-1.9-1.9c-3.3-9.8-8-19.1-14.1-27.7l4-10.8l12.7-13.8c7.2-0.2,14-3.4,18.8-9c8.7-10.1,8.4-25.5-0.8-35.1
			c-5-5.3-11.8-8.2-19.1-8.1c-7.2,0.1-14.1,3.1-19,8.4c-4.8,5.2-7.2,11.9-6.9,18.8l-12.7,13.8l-10.7,4.9
			c-15.9-9.3-34-14.3-52.4-14.6l-7-11.1l-2.5-12.2c9.8-8,14.4-20.4,11.8-32.7c-3.9-18.4-22.9-30.4-42.2-26.7
			c-9.7,1.8-18,7.3-23.3,15.2c-5,7.5-6.7,16.4-4.8,25.1c2.5,11.6,10.9,20.9,22.3,25.1l2.7,13.5l-2.2,13.2
			c-9.8,4.4-18.9,10.2-27,17.4l-8-1.4l-9-6.8c-1.3-6.9-5.2-12.9-11.1-16.8c-11-7.4-25.7-5.3-34.3,4.7c-4.8,5.5-6.9,12.6-6.2,19.8
			c0.8,7.1,4.5,13.7,10.2,18c5.9,4.5,13.5,6.2,20.7,4.8l7.6,5.7l3.4,6.9c0.2,0.3,0.2,0.7,0,1c-6.5,14.1-9.8,29.1-9.8,44.7
			c0,2.9,0.1,5.8,0.4,8.7c0,0.4-0.1,0.9-0.5,1.1l-12.8,9.1l-14.6,4.6c-9-6.9-20.8-9-31.7-5.4c-0.2,0.1-0.4,0.2-0.6,0.2l-0.2,0.1
			c-3,1.1-4.6,4.4-3.5,7.4c1.1,3,4.4,4.6,7.4,3.5l0.3-0.1c0.1,0,0.2-0.1,0.3-0.1c8-2.6,16.7-0.7,22.8,5.1c1.1,1,2.5,1.6,4,1.6
			c0.6,0,1.2-0.1,1.7-0.3l18.5-5.8c0.6-0.2,1.1-0.5,1.6-0.8l13.5-9.6c3.6-2.6,5.7-7,5.3-11.4c-0.2-2.6-0.3-5.2-0.3-7.8
			c0-13.9,2.9-27.3,8.7-39.8c1.6-3.5,1.6-7.4-0.1-10.9l-4-8.2c-0.4-0.8-1-1.5-1.7-2.1l-10.9-8.2c-1.5-1.1-3.5-1.5-5.2-0.9
			c-4.5,1.4-9.5,0.6-13.2-2.2c-3.2-2.4-5.3-6-5.7-10.1c-0.4-4,0.8-8,3.4-11.1c4.7-5.5,13.1-6.6,19.1-2.6c3.7,2.5,6,6.5,6.4,10.9
			c0.1,1.6,1,3.1,2.3,4.1l12,9.1c0.7,0.5,1.6,0.9,2.5,1.1l12.1,2.2c1.8,0.3,3.6-0.2,4.9-1.5c8.5-7.8,18.1-14,28.7-18.4
			c1.9-0.8,3.2-2.4,3.5-4.4l2.8-17.3c0.1-0.7,0.1-1.4,0-2.1l-3.6-17.9c-0.4-2.2-2.1-3.9-4.2-4.5c-8.9-2.3-15.6-9-17.4-17.4
			c-1.2-5.6-0.1-11.4,3.2-16.3c3.6-5.4,9.2-9,15.9-10.3c13.2-2.5,26.1,5.5,28.8,17.8c1.9,8.8-2,17.8-10,23c-2,1.3-3,3.7-2.5,6
			l3.4,16.9c0.1,0.7,0.4,1.3,0.8,1.9l8.3,13.3c1.6,2.6,4.4,4.1,7.4,4.1h0c17.4,0,34.4,4.7,49.3,13.7c2.5,1.5,5.5,1.7,8.2,0.5
			l13.1-6.1c0.7-0.3,1.3-0.8,1.8-1.3l15.3-16.5c1.2-1.3,1.7-3.1,1.5-4.8c-0.7-4.4,0.7-8.8,3.7-12.1c2.8-3,6.5-4.6,10.6-4.7
			c4,0,7.8,1.6,10.7,4.5c5.1,5.4,5.3,13.9,0.5,19.6c-3.1,3.5-7.5,5.3-12.1,5c-1.8-0.1-3.5,0.5-4.7,1.8l-15.3,16.5
			c-0.5,0.6-0.9,1.2-1.2,1.9l-5,13.3c-1,2.7-0.6,5.8,1.1,8.2c5.7,7.9,10.2,16.6,13.3,25.8c1.5,4.6,5.2,8,9.7,9.3l12.4,3.5
			c0.7,0.2,1.4,0.3,2.1,0.2l16.1-1.4c2.3-0.2,4.2-1.7,5-3.9c3.3-9.6,11.6-16.4,21.1-17.4c6.2-0.6,12.3,1.3,17.1,5.3
			c5.4,4.5,8.6,11,9.2,18.3c0.4,4.8-0.5,9.7-2.5,14c-1.3,2.9-0.1,6.3,2.8,7.7c2.9,1.3,6.3,0.1,7.7-2.8
			C457.5,252.3,458.7,245.5,458.2,238.7L458.2,238.7z"/>
		<path d="M429.1,267.3c-1.6,0.5-3.3,0.9-5,1.1c-10,1-19.3-4.5-23.8-14.1c-1-2.2-3.3-3.5-5.7-3.3l-15.1,1.3c-0.7,0.1-1.4,0.2-2,0.6
			l-11.4,5.5c-4.3,2.1-7.3,6.2-8,11c-1,7.2-2.8,14.2-5.4,21c-1.5,4-1.2,8.5,0.8,12.2l4.1,7.3c0.4,0.8,1.1,1.5,1.8,2l11.3,7.6
			c1.6,1,3.5,1.3,5.3,0.6c4.4-1.7,9.4-1.1,13.3,1.5c3.4,2.3,5.6,5.7,6.3,9.7c0.7,4-0.3,8-2.8,11.2c-4.4,5.7-12.7,7.4-18.9,3.7
			c-3.8-2.3-6.4-6.1-7-10.5c-0.2-1.6-1.1-3.1-2.5-4l-12.5-8.4c-0.8-0.5-1.6-0.8-2.5-0.9l-7.9-1c-4.4-0.5-8.8,0.9-12.1,4
			c-6.3,6-13.4,11.1-21.1,15.2c-4.5,2.4-7.4,7-7.8,12.1l-1,16c0,0.6,0,1.2,0.2,1.8l5,19.7c0.5,2,2.1,3.6,4,4.2
			c6.7,1.9,12,7.2,13.7,14c1.3,5.1,0.5,10.5-2.3,15c-2.8,4.5-7.2,7.6-12.4,8.8c-9.7,2.2-19.7-3.5-22.7-12.9
			c-2.3-7.1-0.4-14.8,4.9-20c1.5-1.4,2.1-3.5,1.6-5.5l-5-19.8c-0.1-0.6-0.4-1.1-0.7-1.6l-7.7-12.4c-3.1-5-8.5-8-14.6-8c0,0,0,0,0,0
			c-6.2,0-12.5-0.6-18.6-1.8c-5.8-1.1-11.7,0.7-15.7,5l-10.2,10.7c-0.4,0.4-0.8,0.9-1,1.5l-11.4,23.6c-0.8,1.6-0.8,3.5,0,5.1
			c2,4.1,2,8.7,0.1,12.8c-1.8,3.7-4.9,6.3-8.7,7.6c-3.9,1.2-8,0.8-11.5-1.2c-6.3-3.5-9-11.5-6.3-18.2c1.8-4.4,5.5-7.6,10.2-8.7
			c1.7-0.4,3.1-1.5,3.9-3.1l11.5-23.8c0.3-0.5,0.4-1.1,0.5-1.7l2.2-16c0.7-4.9-1.3-9.9-5.1-13.1c-8.7-7-16-15.4-21.7-24.9
			c-2.5-4.2-7.1-6.8-12.1-6.8l-15.9-0.2c-0.6,0-1.2,0.1-1.8,0.3l-17.4,5.5c-2.2,0.7-3.8,2.6-4,4.9c-1,8.9-7.2,16.4-15.7,19.1
			c-11.8,3.7-24.5-2.8-28.3-14.6c-1.5-4.7-1.5-9.6,0.1-14.3c1-3-0.6-6.3-3.6-7.3c-3-1-6.3,0.6-7.3,3.6c-2.4,7.1-2.5,14.6-0.2,21.7
			c4.7,14.4,18.2,23.6,32.6,23.6c3.4,0,6.8-0.5,10.2-1.6c11.7-3.7,20.4-13.3,23.1-25l13.2-4.2l15,0.1c0.9,0,1.8,0.5,2.3,1.3
			c6.5,10.6,14.6,20,24.3,27.9c0.7,0.6,1.1,1.5,0.9,2.5l-2.1,15.1l-10,20.7c-7,2.5-12.6,7.8-15.5,14.7c-5,12.1-0.1,26.2,11.3,32.6
			c6.4,3.6,13.7,4.4,20.7,2.2c6.9-2.2,12.6-7.1,15.7-13.6c3.1-6.4,3.4-13.6,1-20.2l9.9-20.5l9.6-10.1c1.3-1.4,3.2-1.9,5.1-1.6
			c6.8,1.4,13.8,2,20.9,2h0c2,0,3.7,1,4.7,2.6l7.2,11.6l4,15.9c-6.7,8.2-8.8,19.1-5.5,29.3c4.2,12.9,16.5,21.4,29.6,21.4
			c2.2,0,4.4-0.2,6.6-0.7c8.3-1.8,15.3-6.8,19.7-14c4.4-7.2,5.7-15.7,3.7-23.9c-2.4-9.6-9.4-17.5-18.5-21.2l-4-15.8l0.9-15.1
			c0.1-1.1,0.7-2.1,1.7-2.6c8.6-4.6,16.5-10.3,23.6-17.1c0.7-0.7,1.7-1,2.7-0.9l6.5,0.8l9.4,6.3c1.7,6.8,6,12.6,12,16.2
			c11.4,6.7,26,3.9,34-6.6c4.4-5.8,6.2-13,5-20.1c-1.2-7.1-5.3-13.4-11.2-17.4c-6.2-4.1-13.8-5.4-20.9-3.6l-7.9-5.3l-3.4-6.1
			c-0.4-0.7-0.5-1.6-0.1-2.4c2.9-7.6,5-15.5,6.1-23.5c0.1-1,0.7-1.8,1.6-2.2l10.5-5l10.3-0.9c7.1,11.8,19.9,18.4,33.5,17.1
			c2.5-0.3,5-0.8,7.4-1.6c3-1,4.7-4.3,3.7-7.3C435.4,267.9,432.1,266.3,429.1,267.3L429.1,267.3z"/>
		<path d="M281.9,177.3c-6.1-1.4-12.3-2.1-18.6-2.1c-44.6,0-80.9,36.3-80.9,80.9s36.3,80.9,80.9,80.9s80.9-36.3,80.9-80.9
			c0-27.9-14.1-53.5-37.7-68.4c-2.7-1.7-6.3-0.9-8,1.8c-1.7,2.7-0.9,6.3,1.8,8c20.2,12.8,32.3,34.7,32.3,58.6
			c0,38.2-31.1,69.3-69.3,69.3s-69.3-31.1-69.3-69.3s31.1-69.3,69.3-69.3c5.4,0,10.7,0.6,15.9,1.8c3.1,0.7,6.2-1.2,6.9-4.3
			C286.9,181.1,285,178,281.9,177.3L281.9,177.3z"/>
		<path d="M136.9,125.2c15,0,27.2-12.2,27.2-27.2s-12.2-27.2-27.2-27.2s-27.2,12.2-27.2,27.2C109.7,113.1,121.9,125.2,136.9,125.2z
			 M136.9,82.5c8.6,0,15.6,7,15.6,15.6s-7,15.6-15.6,15.6s-15.6-7-15.6-15.6S128.3,82.5,136.9,82.5z"/>
		<path d="M131,360.2c-11,0-19.9,8.9-19.9,19.9S120.1,400,131,400c11,0,19.9-8.9,19.9-19.9C150.9,369.1,142,360.2,131,360.2z
			 M131,388.4c-4.6,0-8.4-3.7-8.4-8.4c0-4.6,3.7-8.4,8.4-8.4c4.6,0,8.4,3.7,8.4,8.4C139.4,384.7,135.6,388.4,131,388.4z"/>
		<path d="M390.5,376.7c-14.7,0-26.6,11.9-26.6,26.6c0,14.7,11.9,26.6,26.6,26.6s26.6-11.9,26.6-26.6
			C417.1,388.6,405.1,376.7,390.5,376.7z M390.5,418.3c-8.3,0-15-6.7-15-15s6.7-15,15-15s15,6.7,15,15S398.8,418.3,390.5,418.3z"/>
		<path d="M265.4,235.3c0-13.9-11.3-25.2-25.2-25.2S215,221.4,215,235.3c0,13.9,11.3,25.2,25.2,25.2S265.4,249.2,265.4,235.3
			L265.4,235.3z M240.2,248.9c-7.5,0-13.6-6.1-13.6-13.6s6.1-13.6,13.6-13.6s13.6,6.1,13.6,13.6S247.7,248.9,240.2,248.9z"/>
		<path d="M255.8,314.6c10.5,0,19-8.5,19-19c0-10.5-8.5-19-19-19s-19,8.5-19,19C236.8,306.1,245.3,314.6,255.8,314.6z M255.8,288.2
			c4.1,0,7.4,3.3,7.4,7.4s-3.3,7.4-7.4,7.4c-4.1,0-7.4-3.3-7.4-7.4S251.7,288.2,255.8,288.2z"/>
		<path d="M280.4,256c0,9.3,7.6,16.9,16.9,16.9c9.3,0,16.9-7.6,16.9-16.9c0-9.3-7.6-16.9-16.9-16.9C288,239.2,280.4,246.7,280.4,256
			L280.4,256z M297.3,250.7c2.9,0,5.3,2.4,5.3,5.3c0,2.9-2.4,5.3-5.3,5.3S292,259,292,256C292,253.1,294.3,250.7,297.3,250.7z"/>
	</g>
</g>
</svg>
