<?xml version="1.0" encoding="utf-8"?>
<!-- Generator: Adobe Illustrator 21.0.2, SVG Export Plug-In . SVG Version: 6.00 Build 0)  -->
<svg version="1.1" id="Layer_1" xmlns="http://www.w3.org/2000/svg" xmlns:xlink="http://www.w3.org/1999/xlink" x="0px" y="0px"
	 viewBox="0 0 636.1 140.4" style="enable-background:new 0 0 636.1 140.4;" xml:space="preserve">
<style type="text/css">
	.st0{fill:#D800AF;}
	.st1{fill:#FC00A8;}
	.st2{fill:#F58A97;}
	.st3{fill:#F07281;}
	.st4{fill:#EB5569;}
</style>
<g>
	<path class="st0" d="M291.5,102.4c-2.8,1.4-9,2.9-17.1,2.9c-23.1,0-34.9-14.4-34.9-33.4c0-22.8,16.2-35.4,36.4-35.4
		c7.8,0,13.8,1.6,16.4,3l-3.1,12c-3.1-1.3-7.3-2.5-12.7-2.5c-12,0-21.3,7.2-21.3,22.1c0,13.4,7.9,21.8,21.4,21.8
		c4.6,0,9.6-1,12.6-2.2L291.5,102.4z"/>
	<path class="st0" d="M346.9,79.5c0,17.7-12.6,25.8-25.5,25.8c-14.2,0-25-9.3-25-24.9c0-15.6,10.3-25.6,25.8-25.6
		C337,54.8,346.9,65,346.9,79.5z M311.8,80c0,8.3,3.5,14.6,9.9,14.6c5.8,0,9.6-5.8,9.6-14.6c0-7.2-2.8-14.6-9.6-14.6
		C314.5,65.5,311.8,72.9,311.8,80z"/>
	<path class="st0" d="M366.5,55.9l6.5,22.5c1.2,4.1,2.1,7.9,2.8,11.8h0.3c0.8-4,1.6-7.6,2.7-11.8l6.2-22.5h15.8l-18,48.4h-15
		l-17.6-48.4H366.5z"/>
	<path class="st0" d="M423.3,42.4c0,4.2-3.2,7.5-8.1,7.5c-4.8,0-7.9-3.4-7.8-7.5c-0.1-4.4,3.1-7.6,7.9-7.6
		C420.1,34.8,423.2,38.1,423.3,42.4z M407.8,104.3V55.9h15v48.4H407.8z"/>
	<path class="st0" d="M481.8,34v55.8c0,5.4,0.2,11.2,0.4,14.5h-13.4l-0.7-7.1H468c-3.1,5.4-8.9,8.2-15.1,8.2
		c-11.5,0-20.7-9.8-20.7-24.8c-0.1-16.3,10.1-25.7,21.7-25.7c5.9,0,10.6,2.1,12.8,5.4h0.2V34H481.8z M466.8,76.4
		c0-0.8-0.1-1.9-0.2-2.7c-0.9-4.1-4.2-7.4-8.8-7.4c-6.8,0-10.4,6.1-10.4,13.8c0,8.2,4.1,13.4,10.3,13.4c4.4,0,7.8-3,8.7-7.2
		c0.3-1.1,0.4-2.2,0.4-3.5V76.4z"/>
	<path class="st0" d="M511.2,53.3H511l-12.3,5.8l-2.5-11.3l17-7.9h12.5v64.3h-14.6V53.3z"/>
	<path class="st0" d="M551.7,93.4c1.9,0.2,3.6,0.2,6.5,0c4.6-0.3,9.2-1.6,12.7-4c4.2-2.9,6.9-7,8.1-11.9l-0.3-0.1
		c-2.9,3-7,4.7-12.9,4.7c-10.9,0-20.1-7.6-20.1-20.1c0-12.6,10.1-23.2,24.3-23.2c16.5,0,24.4,12.7,24.4,27.7
		c0,13.4-4.3,23.2-11.3,29.6c-6.1,5.5-14.6,8.6-24.6,9c-2.6,0.2-5.1,0.1-6.8,0V93.4z M560.8,61.1c0,5.5,3,10.3,9.1,10.3
		c4.1,0,6.9-2,8.3-4.3c0.5-0.9,0.8-1.9,0.8-3.8c0-6.8-2.6-13.6-9.4-13.6C564.5,49.9,560.7,54.4,560.8,61.1z"/>
</g>
<g>
	<g>
		<g id="XMLID_107_">
			<g>
				<path class="st1" d="M160.1,65.6c0.4,5.2-3.2,9.8-8.1,10.3c-3.7,0.4-7.1-1.8-8.7-5.1l-4.4,0.4l-3.3,1.6
					c-0.8,0.4-1.3,1.1-1.4,1.9c-0.3,2.3-0.9,4.4-1.7,6.5c-0.3,0.7-0.2,1.5,0.1,2.1l1.2,2.1l3.3,2.2c1.7-0.7,3.8-0.5,5.5,0.6
					c2.8,1.9,3.5,5.8,1.4,8.6c-1.8,2.4-5.2,3-7.8,1.5c-1.6-1-2.6-2.6-2.9-4.3l-3.7-2.5l-2.3-0.3c-0.8-0.1-1.6,0.2-2.2,0.7
					c-2,1.9-4.2,3.5-6.6,4.7c-0.8,0.4-1.3,1.3-1.4,2.2l-0.3,4.7l1.5,5.8c2.5,0.7,4.5,2.7,5.2,5.3c1,4-1.5,8.1-5.6,9
					c-3.7,0.8-7.5-1.3-8.6-4.9c-0.9-2.8-0.1-5.7,1.9-7.6l-1.5-5.8l-2.3-3.6c-0.6-1-1.7-1.5-2.8-1.5c0,0,0,0,0,0
					c-2,0-3.9-0.2-5.8-0.6c-1.1-0.2-2.3,0.1-3,1l-3,3.1l-3.3,6.9c0.8,1.6,0.9,3.5,0,5.2c-1.5,3.1-5.3,4.3-8.3,2.6
					c-2.6-1.5-3.7-4.7-2.6-7.4c0.8-1.9,2.4-3.1,4.2-3.6l3.4-7l0.7-4.7c0.1-0.9-0.2-1.7-0.9-2.3c-2.7-2.2-5-4.8-6.8-7.7
					c-0.4-0.7-1.2-1.2-2.1-1.2l-4.7,0l-5.1,1.6c-0.4,3.2-2.5,6-5.8,7c-4.4,1.4-9-1-10.4-5.4c-1.4-4.3,1-9.1,5.3-10.5
					c3-1,6.2-0.2,8.4,1.9l5.4-1.7l4-2.8c0.6-0.4,0.9-1.1,0.8-1.8c-0.1-0.8-0.1-1.6-0.1-2.4c0-4.4,1-8.6,2.7-12.4
					c0.3-0.6,0.2-1.2,0-1.7l-1.2-2.4l-3.2-2.4c-1.8,0.6-3.8,0.3-5.4-0.9c-2.7-2.1-3.2-6-0.9-8.6c1.9-2.3,5.4-2.7,7.8-1.1
					c1.6,1.1,2.5,2.7,2.6,4.5l3.5,2.7l3.6,0.6c2.6-2.4,5.6-4.4,8.9-5.7l0.8-5.1l-1.1-5.2c-3.1-0.8-5.7-3.2-6.3-6.4
					c-1-4.5,2.1-8.9,6.9-9.8c4.8-0.9,9.4,2,10.4,6.5c0.7,3.4-0.8,6.7-3.7,8.5l1,4.9l2.4,3.9c0.2,0.3,0.4,0.4,0.7,0.4h0
					c5.6,0,10.8,1.6,15.3,4.3c0.2,0.1,0.5,0.2,0.8,0l3.8-1.8l4.5-4.8c-0.3-1.7,0.2-3.6,1.5-5c2.3-2.5,6.3-2.6,8.7-0.1
					c2.1,2.2,2.2,5.7,0.2,8c-1.3,1.5-3.1,2.2-5,2l-4.5,4.8l-1.5,3.9c-0.1,0.3-0.1,0.6,0.1,0.8c1.8,2.4,3.2,5.1,4.1,8
					c0.3,0.8,0.9,1.4,1.7,1.6l3.6,1l4.7-0.4c1.2-3.3,4.1-5.9,7.6-6.2C155.4,56.7,159.7,60.5,160.1,65.6L160.1,65.6z"/>
			</g>
		</g>
		<g id="XMLID_8_">
			<g>
				<circle class="st2" cx="104.7" cy="70.6" r="22"/>
			</g>
		</g>
		<path class="st3" d="M89.4,70.6c0-11,8.1-20.2,18.7-21.8c-1.1-0.2-2.2-0.3-3.4-0.3c-12.2,0-22,9.9-22,22s9.9,22,22,22
			c1.1,0,2.3-0.1,3.4-0.3C97.4,90.7,89.4,81.6,89.4,70.6L89.4,70.6z"/>
		<g>
			<circle class="st4" cx="67.6" cy="24.3" r="6.3"/>
			<circle class="st4" cx="65.9" cy="107" r="4.1"/>
			<circle class="st4" cx="142" cy="113.8" r="6.1"/>
			<circle class="st4" cx="97.9" cy="64.5" r="5.7"/>
			<circle class="st4" cx="102.5" cy="82.2" r="3.9"/>
			<circle class="st4" cx="114.6" cy="70.6" r="3.3"/>
		</g>
	</g>
	<g>
		<path d="M161.8,65.5c-0.2-3.1-1.6-5.8-3.9-7.7c-2.1-1.8-4.8-2.6-7.5-2.3c-3.7,0.4-7,2.8-8.6,6.3l-3.4,0.3l-3.3-0.9
			c-0.3-0.1-0.5-0.3-0.6-0.5c-1-2.9-2.4-5.6-4.1-8.1l1.2-3.2l3.7-4c2.1-0.1,4.1-1,5.5-2.6c2.6-3,2.5-7.5-0.2-10.3
			c-1.5-1.5-3.5-2.4-5.6-2.4c-2.1,0-4.1,0.9-5.6,2.5c-1.4,1.5-2.1,3.5-2,5.5l-3.7,4l-3.1,1.4c-4.7-2.7-10-4.2-15.4-4.3l-2-3.3
			l-0.7-3.6c2.9-2.3,4.2-6,3.4-9.6c-1.2-5.4-6.7-8.9-12.4-7.8c-2.9,0.5-5.3,2.1-6.8,4.5c-1.5,2.2-2,4.8-1.4,7.3
			c0.7,3.4,3.2,6.1,6.5,7.4l0.8,4l-0.6,3.9c-2.9,1.3-5.5,3-7.9,5.1l-2.3-0.4l-2.6-2c-0.4-2-1.5-3.8-3.3-4.9
			c-3.2-2.2-7.5-1.6-10.1,1.4c-1.4,1.6-2,3.7-1.8,5.8c0.2,2.1,1.3,4,3,5.3c1.7,1.3,3.9,1.8,6.1,1.4l2.2,1.7l1,2c0,0.1,0,0.2,0,0.3
			c-1.9,4.1-2.9,8.5-2.9,13.1c0,0.8,0,1.7,0.1,2.6c0,0.1,0,0.3-0.1,0.3l-3.7,2.7l-4.3,1.3c-2.6-2-6.1-2.6-9.3-1.6
			c-0.1,0-0.1,0-0.2,0.1l-0.1,0c-0.9,0.3-1.3,1.3-1,2.2c0.3,0.9,1.3,1.3,2.2,1l0.1,0c0,0,0.1,0,0.1,0c2.3-0.8,4.9-0.2,6.7,1.5
			c0.3,0.3,0.7,0.5,1.2,0.5c0.2,0,0.3,0,0.5-0.1l5.4-1.7c0.2-0.1,0.3-0.1,0.5-0.2l4-2.8c1.1-0.8,1.7-2,1.5-3.4
			c-0.1-0.8-0.1-1.5-0.1-2.3c0-4.1,0.9-8,2.6-11.7c0.5-1,0.5-2.2,0-3.2L78,53.3c-0.1-0.2-0.3-0.4-0.5-0.6l-3.2-2.4
			c-0.4-0.3-1-0.4-1.5-0.3c-1.3,0.4-2.8,0.2-3.9-0.7c-1-0.7-1.5-1.8-1.7-2.9c-0.1-1.2,0.2-2.3,1-3.2c1.4-1.6,3.8-1.9,5.6-0.8
			c1.1,0.7,1.8,1.9,1.9,3.2c0,0.5,0.3,0.9,0.7,1.2l3.5,2.7c0.2,0.2,0.5,0.3,0.7,0.3l3.6,0.6c0.5,0.1,1.1-0.1,1.4-0.4
			c2.5-2.3,5.3-4.1,8.4-5.4c0.5-0.2,0.9-0.7,1-1.3l0.8-5.1c0-0.2,0-0.4,0-0.6l-1.1-5.2c-0.1-0.6-0.6-1.1-1.2-1.3
			C91,30.4,89,28.5,88.5,26c-0.4-1.6,0-3.3,0.9-4.8c1-1.6,2.7-2.6,4.7-3c3.9-0.7,7.7,1.6,8.4,5.2c0.6,2.6-0.6,5.2-2.9,6.7
			c-0.6,0.4-0.9,1.1-0.7,1.8l1,4.9c0,0.2,0.1,0.4,0.2,0.6l2.4,3.9c0.5,0.8,1.3,1.2,2.2,1.2h0c5.1,0,10.1,1.4,14.5,4
			c0.7,0.4,1.6,0.5,2.4,0.1l3.8-1.8c0.2-0.1,0.4-0.2,0.5-0.4l4.5-4.8c0.4-0.4,0.5-0.9,0.4-1.4c-0.2-1.3,0.2-2.6,1.1-3.6
			c0.8-0.9,1.9-1.4,3.1-1.4c1.2,0,2.3,0.5,3.1,1.3c1.5,1.6,1.6,4.1,0.1,5.7c-0.9,1-2.2,1.6-3.6,1.5c-0.5,0-1,0.2-1.4,0.5l-4.5,4.8
			c-0.2,0.2-0.3,0.4-0.3,0.6l-1.5,3.9c-0.3,0.8-0.2,1.7,0.3,2.4c1.7,2.3,3,4.9,3.9,7.6c0.4,1.3,1.5,2.4,2.9,2.7l3.6,1
			c0.2,0.1,0.4,0.1,0.6,0.1l4.7-0.4c0.7-0.1,1.2-0.5,1.5-1.1c1-2.8,3.4-4.8,6.2-5.1c1.8-0.2,3.6,0.4,5,1.6c1.6,1.3,2.5,3.2,2.7,5.4
			c0.1,1.4-0.1,2.8-0.7,4.1c-0.4,0.8,0,1.9,0.8,2.3c0.8,0.4,1.9,0,2.3-0.8C161.6,69.5,162,67.5,161.8,65.5L161.8,65.5z"/>
		<path d="M153.3,73.9c-0.5,0.2-1,0.3-1.5,0.3c-2.9,0.3-5.7-1.3-7-4.1c-0.3-0.6-1-1-1.7-1l-4.4,0.4c-0.2,0-0.4,0.1-0.6,0.2l-3.3,1.6
			c-1.3,0.6-2.1,1.8-2.3,3.2c-0.3,2.1-0.8,4.2-1.6,6.1c-0.5,1.2-0.4,2.5,0.2,3.6l1.2,2.1c0.1,0.2,0.3,0.4,0.5,0.6l3.3,2.2
			c0.5,0.3,1,0.4,1.5,0.2c1.3-0.5,2.8-0.3,3.9,0.4c1,0.7,1.6,1.7,1.8,2.9c0.2,1.2-0.1,2.3-0.8,3.3c-1.3,1.7-3.7,2.2-5.6,1.1
			c-1.1-0.7-1.9-1.8-2.1-3.1c-0.1-0.5-0.3-0.9-0.7-1.2l-3.7-2.5c-0.2-0.1-0.5-0.2-0.7-0.3l-2.3-0.3c-1.3-0.2-2.6,0.3-3.5,1.2
			c-1.9,1.8-3.9,3.3-6.2,4.5c-1.3,0.7-2.2,2.1-2.3,3.6l-0.3,4.7c0,0.2,0,0.4,0,0.5l1.5,5.8c0.1,0.6,0.6,1.1,1.2,1.2
			c2,0.6,3.5,2.1,4,4.1c0.4,1.5,0.1,3.1-0.7,4.4c-0.8,1.3-2.1,2.2-3.6,2.6c-2.8,0.6-5.8-1-6.7-3.8c-0.7-2.1-0.1-4.3,1.4-5.9
			c0.4-0.4,0.6-1,0.5-1.6l-1.5-5.8c0-0.2-0.1-0.3-0.2-0.5l-2.3-3.6c-0.9-1.5-2.5-2.3-4.3-2.3c0,0,0,0,0,0c-1.8,0-3.7-0.2-5.5-0.5
			c-1.7-0.3-3.4,0.2-4.6,1.5l-3,3.1c-0.1,0.1-0.2,0.3-0.3,0.4l-3.3,6.9c-0.2,0.5-0.2,1,0,1.5c0.6,1.2,0.6,2.6,0,3.7
			c-0.5,1.1-1.4,1.9-2.6,2.2c-1.1,0.4-2.3,0.2-3.4-0.4c-1.8-1-2.6-3.4-1.9-5.3c0.5-1.3,1.6-2.2,3-2.5c0.5-0.1,0.9-0.5,1.1-0.9l3.4-7
			c0.1-0.2,0.1-0.3,0.2-0.5l0.7-4.7c0.2-1.4-0.4-2.9-1.5-3.8c-2.5-2.1-4.7-4.5-6.4-7.3c-0.7-1.2-2.1-2-3.5-2l-4.7,0
			c-0.2,0-0.4,0-0.5,0.1l-5.1,1.6c-0.6,0.2-1.1,0.8-1.2,1.4c-0.3,2.6-2.1,4.8-4.6,5.6c-3.5,1.1-7.2-0.8-8.3-4.3
			c-0.4-1.4-0.4-2.8,0-4.2c0.3-0.9-0.2-1.8-1.1-2.2c-0.9-0.3-1.8,0.2-2.2,1.1c-0.7,2.1-0.7,4.3-0.1,6.4c1.4,4.2,5.3,6.9,9.6,6.9
			c1,0,2-0.1,3-0.5c3.4-1.1,6-3.9,6.8-7.3l3.9-1.2l4.4,0c0.3,0,0.5,0.1,0.7,0.4c1.9,3.1,4.3,5.9,7.1,8.2c0.2,0.2,0.3,0.4,0.3,0.7
			l-0.6,4.4l-2.9,6.1c-2,0.7-3.7,2.3-4.5,4.3c-1.5,3.6,0,7.7,3.3,9.6c1.9,1.1,4,1.3,6.1,0.6c2-0.6,3.7-2.1,4.6-4
			c0.9-1.9,1-4,0.3-5.9l2.9-6l2.8-3c0.4-0.4,0.9-0.6,1.5-0.5c2,0.4,4.1,0.6,6.1,0.6h0c0.6,0,1.1,0.3,1.4,0.7l2.1,3.4l1.2,4.7
			c-2,2.4-2.6,5.6-1.6,8.6c1.2,3.8,4.8,6.3,8.7,6.3c0.6,0,1.3-0.1,1.9-0.2c2.4-0.5,4.5-2,5.8-4.1c1.3-2.1,1.7-4.6,1.1-7
			c-0.7-2.8-2.7-5.1-5.4-6.2l-1.2-4.6l0.3-4.4c0-0.3,0.2-0.6,0.5-0.8c2.5-1.3,4.9-3,6.9-5c0.2-0.2,0.5-0.3,0.8-0.3l1.9,0.2l2.8,1.8
			c0.5,2,1.7,3.7,3.5,4.7c3.3,2,7.6,1.1,10-1.9c1.3-1.7,1.8-3.8,1.5-5.9c-0.3-2.1-1.5-3.9-3.3-5.1c-1.8-1.2-4-1.6-6.1-1.1l-2.3-1.5
			l-1-1.8c-0.1-0.2-0.1-0.5,0-0.7c0.9-2.2,1.5-4.5,1.8-6.9c0-0.3,0.2-0.5,0.5-0.6l3.1-1.5l3-0.3c2.1,3.5,5.8,5.4,9.8,5
			c0.7-0.1,1.5-0.2,2.2-0.5c0.9-0.3,1.4-1.3,1.1-2.1C155.1,74.1,154.2,73.6,153.3,73.9L153.3,73.9z"/>
		<path d="M110.1,47.5c-1.8-0.4-3.6-0.6-5.4-0.6c-13.1,0-23.7,10.6-23.7,23.7s10.6,23.7,23.7,23.7s23.7-10.6,23.7-23.7
			c0-8.2-4.1-15.7-11.1-20.1c-0.8-0.5-1.8-0.3-2.3,0.5c-0.5,0.8-0.3,1.8,0.5,2.3c5.9,3.8,9.5,10.2,9.5,17.2
			c0,11.2-9.1,20.3-20.3,20.3s-20.3-9.1-20.3-20.3c0-11.2,9.1-20.3,20.3-20.3c1.6,0,3.1,0.2,4.7,0.5c0.9,0.2,1.8-0.4,2-1.3
			C111.6,48.6,111,47.7,110.1,47.5L110.1,47.5z"/>
		<path d="M67.6,32.2c4.4,0,8-3.6,8-8s-3.6-8-8-8c-4.4,0-8,3.6-8,8C59.6,28.7,63.2,32.2,67.6,32.2z M67.6,19.7
			c2.5,0,4.6,2.1,4.6,4.6s-2.1,4.6-4.6,4.6c-2.5,0-4.6-2.1-4.6-4.6S65.1,19.7,67.6,19.7z"/>
		<path d="M65.9,101.1c-3.2,0-5.8,2.6-5.8,5.8c0,3.2,2.6,5.8,5.8,5.8c3.2,0,5.8-2.6,5.8-5.8C71.7,103.7,69.1,101.1,65.9,101.1z
			 M65.9,109.4c-1.4,0-2.4-1.1-2.4-2.4c0-1.4,1.1-2.4,2.4-2.4c1.4,0,2.4,1.1,2.4,2.4C68.3,108.3,67.2,109.4,65.9,109.4z"/>
		<path d="M142,106c-4.3,0-7.8,3.5-7.8,7.8c0,4.3,3.5,7.8,7.8,7.8s7.8-3.5,7.8-7.8C149.8,109.5,146.3,106,142,106z M142,118.2
			c-2.4,0-4.4-2-4.4-4.4s2-4.4,4.4-4.4c2.4,0,4.4,2,4.4,4.4S144.4,118.2,142,118.2z"/>
		<path d="M105.3,64.5c0-4.1-3.3-7.4-7.4-7.4s-7.4,3.3-7.4,7.4c0,4.1,3.3,7.4,7.4,7.4S105.3,68.6,105.3,64.5L105.3,64.5z M97.9,68.5
			c-2.2,0-4-1.8-4-4c0-2.2,1.8-4,4-4s4,1.8,4,4C101.9,66.7,100.1,68.5,97.9,68.5z"/>
		<path d="M102.5,87.8c3.1,0,5.6-2.5,5.6-5.6s-2.5-5.6-5.6-5.6s-5.6,2.5-5.6,5.6C96.9,85.3,99.4,87.8,102.5,87.8z M102.5,80
			c1.2,0,2.2,1,2.2,2.2s-1,2.2-2.2,2.2s-2.2-1-2.2-2.2S101.3,80,102.5,80z"/>
		<path d="M109.7,70.6c0,2.7,2.2,4.9,4.9,4.9c2.7,0,4.9-2.2,4.9-4.9c0-2.7-2.2-4.9-4.9-4.9C111.9,65.6,109.7,67.9,109.7,70.6
			L109.7,70.6z M114.6,69c0.9,0,1.6,0.7,1.6,1.6c0,0.9-0.7,1.6-1.6,1.6c-0.9,0-1.6-0.7-1.6-1.6C113.1,69.7,113.8,69,114.6,69z"/>
	</g>
</g>
</svg>
